<mxfile host="app.diagrams.net" modified="2023-05-09T12:59:20.562Z" agent="Mozilla/5.0 (Windows NT 10.0; Win64; x64) AppleWebKit/537.36 (KHTML, like Gecko) Chrome/112.0.0.0 Safari/537.36" etag="bR-a3Q9oR2N9Y15PKbfw" version="21.1.2" type="github" pages="2">
  <diagram name="Page-1" id="-lLgzmp-qp1-eKJv9865">
    <mxGraphModel dx="1900" dy="668" grid="1" gridSize="10" guides="1" tooltips="1" connect="1" arrows="1" fold="1" page="1" pageScale="1" pageWidth="850" pageHeight="1100" math="0" shadow="0">
      <root>
        <mxCell id="0" />
        <mxCell id="1" parent="0" />
        <mxCell id="rjt3ADyTfvEPs5xekKop-1" value="SCS&lt;br&gt;Left hand menu item&lt;br&gt;(Admin client IDP)" style="rounded=1;whiteSpace=wrap;html=1;" parent="1" vertex="1">
          <mxGeometry x="140" y="170" width="120" height="340" as="geometry" />
        </mxCell>
        <mxCell id="rjt3ADyTfvEPs5xekKop-2" value="" style="rounded=1;whiteSpace=wrap;html=1;" parent="1" vertex="1">
          <mxGeometry x="510" y="395" width="170" height="95" as="geometry" />
        </mxCell>
        <mxCell id="rjt3ADyTfvEPs5xekKop-3" value="SCS Admin client" style="rounded=1;whiteSpace=wrap;html=1;" parent="1" vertex="1">
          <mxGeometry x="530" y="130" width="120" height="100" as="geometry" />
        </mxCell>
        <mxCell id="rjt3ADyTfvEPs5xekKop-4" value="" style="endArrow=classic;html=1;rounded=0;exitX=0.993;exitY=0.04;exitDx=0;exitDy=0;exitPerimeter=0;entryX=-0.003;entryY=0.9;entryDx=0;entryDy=0;entryPerimeter=0;" parent="1" source="rjt3ADyTfvEPs5xekKop-1" target="rjt3ADyTfvEPs5xekKop-3" edge="1">
          <mxGeometry width="50" height="50" relative="1" as="geometry">
            <mxPoint x="170" y="200" as="sourcePoint" />
            <mxPoint x="450" y="320" as="targetPoint" />
            <Array as="points">
              <mxPoint x="260" y="220" />
              <mxPoint x="360" y="220" />
            </Array>
          </mxGeometry>
        </mxCell>
        <mxCell id="rjt3ADyTfvEPs5xekKop-5" value="1) SCS admin client menu" style="text;html=1;align=center;verticalAlign=middle;resizable=0;points=[];autosize=1;strokeColor=none;fillColor=none;" parent="1" vertex="1">
          <mxGeometry x="305" y="220" width="160" height="30" as="geometry" />
        </mxCell>
        <mxCell id="rjt3ADyTfvEPs5xekKop-6" value="" style="endArrow=classic;html=1;rounded=0;" parent="1" edge="1">
          <mxGeometry width="50" height="50" relative="1" as="geometry">
            <mxPoint x="600" y="390" as="sourcePoint" />
            <mxPoint x="600" y="230" as="targetPoint" />
          </mxGeometry>
        </mxCell>
        <mxCell id="rjt3ADyTfvEPs5xekKop-7" value="" style="endArrow=classic;html=1;rounded=0;entryX=0.299;entryY=-0.036;entryDx=0;entryDy=0;entryPerimeter=0;exitX=0.25;exitY=1;exitDx=0;exitDy=0;" parent="1" source="rjt3ADyTfvEPs5xekKop-3" target="rjt3ADyTfvEPs5xekKop-2" edge="1">
          <mxGeometry width="50" height="50" relative="1" as="geometry">
            <mxPoint x="540" y="240" as="sourcePoint" />
            <mxPoint x="570" y="340" as="targetPoint" />
            <Array as="points">
              <mxPoint x="560" y="320" />
            </Array>
          </mxGeometry>
        </mxCell>
        <mxCell id="rjt3ADyTfvEPs5xekKop-8" value="2) OAuth&lt;br&gt;request" style="text;html=1;align=center;verticalAlign=middle;resizable=0;points=[];autosize=1;strokeColor=none;fillColor=none;" parent="1" vertex="1">
          <mxGeometry x="500" y="320" width="70" height="40" as="geometry" />
        </mxCell>
        <mxCell id="rjt3ADyTfvEPs5xekKop-9" value="" style="endArrow=classic;html=1;rounded=0;entryX=1.02;entryY=0.914;entryDx=0;entryDy=0;entryPerimeter=0;exitX=-0.002;exitY=0.916;exitDx=0;exitDy=0;exitPerimeter=0;" parent="1" source="rjt3ADyTfvEPs5xekKop-2" target="rjt3ADyTfvEPs5xekKop-1" edge="1">
          <mxGeometry width="50" height="50" relative="1" as="geometry">
            <mxPoint x="360" y="470" as="sourcePoint" />
            <mxPoint x="410" y="430" as="targetPoint" />
            <Array as="points">
              <mxPoint x="350" y="480" />
            </Array>
          </mxGeometry>
        </mxCell>
        <mxCell id="rjt3ADyTfvEPs5xekKop-10" value="" style="endArrow=classic;html=1;rounded=0;entryX=0;entryY=0.5;entryDx=0;entryDy=0;exitX=1;exitY=0.802;exitDx=0;exitDy=0;exitPerimeter=0;" parent="1" source="rjt3ADyTfvEPs5xekKop-1" target="rjt3ADyTfvEPs5xekKop-2" edge="1">
          <mxGeometry width="50" height="50" relative="1" as="geometry">
            <mxPoint x="280" y="420" as="sourcePoint" />
            <mxPoint x="350" y="380" as="targetPoint" />
            <Array as="points" />
          </mxGeometry>
        </mxCell>
        <mxCell id="rjt3ADyTfvEPs5xekKop-11" value="3) Login details" style="text;html=1;align=center;verticalAlign=middle;resizable=0;points=[];autosize=1;strokeColor=none;fillColor=none;" parent="1" vertex="1">
          <mxGeometry x="335" y="480" width="100" height="30" as="geometry" />
        </mxCell>
        <mxCell id="rjt3ADyTfvEPs5xekKop-14" value="4) User Credentials" style="text;html=1;align=center;verticalAlign=middle;resizable=0;points=[];autosize=1;strokeColor=none;fillColor=none;" parent="1" vertex="1">
          <mxGeometry x="310" y="410" width="130" height="30" as="geometry" />
        </mxCell>
        <mxCell id="rjt3ADyTfvEPs5xekKop-15" value="5) OAuth response +&lt;br&gt;One time code" style="text;html=1;align=center;verticalAlign=middle;resizable=0;points=[];autosize=1;strokeColor=none;fillColor=none;" parent="1" vertex="1">
          <mxGeometry x="600" y="320" width="130" height="40" as="geometry" />
        </mxCell>
        <mxCell id="rjt3ADyTfvEPs5xekKop-19" value="" style="endArrow=classic;html=1;rounded=0;exitX=1;exitY=0.75;exitDx=0;exitDy=0;entryX=1.016;entryY=0.166;entryDx=0;entryDy=0;entryPerimeter=0;" parent="1" source="rjt3ADyTfvEPs5xekKop-3" target="rjt3ADyTfvEPs5xekKop-2" edge="1">
          <mxGeometry width="50" height="50" relative="1" as="geometry">
            <mxPoint x="750" y="190" as="sourcePoint" />
            <mxPoint x="680" y="400" as="targetPoint" />
            <Array as="points">
              <mxPoint x="760" y="205" />
              <mxPoint x="760" y="410" />
            </Array>
          </mxGeometry>
        </mxCell>
        <mxCell id="rjt3ADyTfvEPs5xekKop-20" value="" style="endArrow=classic;html=1;rounded=0;entryX=1.013;entryY=0.408;entryDx=0;entryDy=0;entryPerimeter=0;" parent="1" target="rjt3ADyTfvEPs5xekKop-3" edge="1">
          <mxGeometry width="50" height="50" relative="1" as="geometry">
            <mxPoint x="790" y="440" as="sourcePoint" />
            <mxPoint x="830" y="160" as="targetPoint" />
            <Array as="points">
              <mxPoint x="680" y="440" />
              <mxPoint x="800" y="440" />
              <mxPoint x="800" y="240" />
              <mxPoint x="800" y="170" />
            </Array>
          </mxGeometry>
        </mxCell>
        <mxCell id="rjt3ADyTfvEPs5xekKop-21" value="6) Token request" style="text;html=1;align=center;verticalAlign=middle;resizable=0;points=[];autosize=1;strokeColor=none;fillColor=none;" parent="1" vertex="1">
          <mxGeometry x="655" y="230" width="110" height="30" as="geometry" />
        </mxCell>
        <mxCell id="rjt3ADyTfvEPs5xekKop-22" value="7) Token response" style="text;html=1;align=center;verticalAlign=middle;resizable=0;points=[];autosize=1;strokeColor=none;fillColor=none;" parent="1" vertex="1">
          <mxGeometry x="680" y="135" width="120" height="30" as="geometry" />
        </mxCell>
        <mxCell id="rjt3ADyTfvEPs5xekKop-23" value="http://localhost:8090/edb-scs-adminclient/default/facelets/menu/Startpage.jsf?domain=2355&amp;amp;autoRedirectIdp=true&amp;amp;kc_idp_hint=internal" style="text;html=1;align=center;verticalAlign=middle;resizable=0;points=[];autosize=1;strokeColor=none;fillColor=none;shadow=1;" parent="1" vertex="1">
          <mxGeometry x="75" y="545" width="740" height="30" as="geometry" />
        </mxCell>
        <mxCell id="rjt3ADyTfvEPs5xekKop-24" value="https://bankportal.preprod-restricted.evry.com/secesb/rest/idp-sos-s2/realms/office-2355/protocol/openid-connect/auth&lt;br&gt;&amp;nbsp; &amp;nbsp; &amp;nbsp; &amp;nbsp; &amp;nbsp; &amp;nbsp; &amp;nbsp; &amp;nbsp; &amp;nbsp; &amp;nbsp; &amp;nbsp; &amp;nbsp; &amp;nbsp; &amp;nbsp; &amp;nbsp; &amp;nbsp; &amp;nbsp; &amp;nbsp; &amp;nbsp; &amp;nbsp; &amp;nbsp; &amp;nbsp; &amp;nbsp; &amp;nbsp; &amp;nbsp; &amp;nbsp; &amp;nbsp; &amp;nbsp; &amp;nbsp; &amp;nbsp; &amp;nbsp; &amp;nbsp; &amp;nbsp; &amp;nbsp; &amp;nbsp; &amp;nbsp; &amp;nbsp; &amp;nbsp; &amp;nbsp; &amp;nbsp; &amp;nbsp; &amp;nbsp; &amp;nbsp; &amp;nbsp; &amp;nbsp; &amp;nbsp; &amp;nbsp; &amp;nbsp; &amp;nbsp; &amp;nbsp; &amp;nbsp; &amp;nbsp; &amp;nbsp; &amp;nbsp; &amp;nbsp; &amp;nbsp; &amp;nbsp; &amp;nbsp; &amp;nbsp; &amp;nbsp; &amp;nbsp; &amp;nbsp; &amp;nbsp; &amp;nbsp; &amp;nbsp; &amp;nbsp; &amp;nbsp; &amp;nbsp; &amp;nbsp; &amp;nbsp; &amp;nbsp; &amp;nbsp; &amp;nbsp; &amp;nbsp; &amp;nbsp;?client_id=scs-admin-client&amp;amp;response_type=code&amp;amp;scope=openid&amp;amp;nonce=98a82d26-4bc3-4a77-9421-87faaabf0b81&lt;br&gt;&amp;amp;state=dbbac4df-0f94-4df7-b548-c7353ebbe778&lt;br&gt;&amp;nbsp; &amp;nbsp; &amp;nbsp; &amp;nbsp; &amp;nbsp; &amp;nbsp; &amp;nbsp; &amp;nbsp; &amp;nbsp; &amp;nbsp; &amp;nbsp; &amp;nbsp; &amp;nbsp; &amp;nbsp; &amp;nbsp; &amp;nbsp; &amp;nbsp; &amp;nbsp; &amp;nbsp; &amp;nbsp; &amp;nbsp; &amp;nbsp; &amp;nbsp; &amp;nbsp; &amp;nbsp; &amp;nbsp; &amp;nbsp; &amp;nbsp; &amp;nbsp; &amp;nbsp; &amp;nbsp; &amp;nbsp; &amp;nbsp; &amp;nbsp; &amp;nbsp; &amp;nbsp; &amp;nbsp; &amp;nbsp; &amp;nbsp; &amp;nbsp; &amp;nbsp; &amp;nbsp; &amp;nbsp; &amp;nbsp; &amp;nbsp; &amp;nbsp; &amp;nbsp; &amp;nbsp; &amp;nbsp; &amp;nbsp; &amp;nbsp; &amp;nbsp; &amp;nbsp; &amp;nbsp; &amp;nbsp; &amp;nbsp; &amp;nbsp; &amp;nbsp;&amp;amp;kc_idp_hint=internal&amp;amp;redirect_uri=http://localhost:8090/edb-scs-adminclient/default/facelets/menu/Startpage.jsf?kc_idp_hint%3Dinternal" style="text;html=1;align=center;verticalAlign=middle;resizable=0;points=[];autosize=1;strokeColor=none;fillColor=none;" parent="1" vertex="1">
          <mxGeometry x="-170" y="575" width="1140" height="70" as="geometry" />
        </mxCell>
        <mxCell id="rjt3ADyTfvEPs5xekKop-25" value="https://bankportal.preprod-restricted.evry.com/secesb/rest/idp-sos-s2/office-2355/protocol/openid-connect/token" style="text;html=1;align=center;verticalAlign=middle;resizable=0;points=[];autosize=1;strokeColor=none;fillColor=none;" parent="1" vertex="1">
          <mxGeometry x="75" y="675" width="610" height="30" as="geometry" />
        </mxCell>
        <mxCell id="rjt3ADyTfvEPs5xekKop-26" value="IDP&lt;br&gt;Auth Service" style="rounded=1;whiteSpace=wrap;html=1;" parent="1" vertex="1">
          <mxGeometry x="535" y="420" width="120" height="60" as="geometry" />
        </mxCell>
      </root>
    </mxGraphModel>
  </diagram>
  <diagram id="0MpnGna1mhet7mRjkK2z" name="Page-2">
    <mxGraphModel dx="1050" dy="668" grid="1" gridSize="10" guides="1" tooltips="1" connect="1" arrows="1" fold="1" page="1" pageScale="1" pageWidth="850" pageHeight="1100" math="0" shadow="0">
      <root>
        <mxCell id="0" />
        <mxCell id="1" parent="0" />
        <mxCell id="4L2Bnw1b_lnp_-0IPFtR-1" value="EEM" style="whiteSpace=wrap;html=1;aspect=fixed;" vertex="1" parent="1">
          <mxGeometry x="30" y="65" width="175" height="175" as="geometry" />
        </mxCell>
        <mxCell id="4L2Bnw1b_lnp_-0IPFtR-2" value="" style="whiteSpace=wrap;html=1;aspect=fixed;" vertex="1" parent="1">
          <mxGeometry x="240" y="90" width="280" height="280" as="geometry" />
        </mxCell>
        <mxCell id="4L2Bnw1b_lnp_-0IPFtR-3" value="SCS Prod" style="whiteSpace=wrap;html=1;aspect=fixed;" vertex="1" parent="1">
          <mxGeometry x="250" y="110" width="80" height="80" as="geometry" />
        </mxCell>
        <mxCell id="4L2Bnw1b_lnp_-0IPFtR-4" value="SCS Pilot" style="whiteSpace=wrap;html=1;aspect=fixed;" vertex="1" parent="1">
          <mxGeometry x="410" y="110" width="80" height="80" as="geometry" />
        </mxCell>
        <mxCell id="4L2Bnw1b_lnp_-0IPFtR-5" value="Offer/Config Db" style="shape=cylinder3;whiteSpace=wrap;html=1;boundedLbl=1;backgroundOutline=1;size=15;" vertex="1" parent="1">
          <mxGeometry x="260" y="220" width="60" height="80" as="geometry" />
        </mxCell>
        <mxCell id="4L2Bnw1b_lnp_-0IPFtR-25" value="" style="edgeStyle=orthogonalEdgeStyle;rounded=0;orthogonalLoop=1;jettySize=auto;html=1;" edge="1" parent="1" source="4L2Bnw1b_lnp_-0IPFtR-6" target="4L2Bnw1b_lnp_-0IPFtR-4">
          <mxGeometry relative="1" as="geometry" />
        </mxCell>
        <mxCell id="4L2Bnw1b_lnp_-0IPFtR-6" value="Offer/Config Db" style="shape=cylinder3;whiteSpace=wrap;html=1;boundedLbl=1;backgroundOutline=1;size=15;" vertex="1" parent="1">
          <mxGeometry x="420" y="220" width="60" height="80" as="geometry" />
        </mxCell>
        <mxCell id="4L2Bnw1b_lnp_-0IPFtR-8" value="SPB1 Internet Banking" style="whiteSpace=wrap;html=1;aspect=fixed;" vertex="1" parent="1">
          <mxGeometry x="30" y="390" width="80" height="80" as="geometry" />
        </mxCell>
        <mxCell id="4L2Bnw1b_lnp_-0IPFtR-9" value="" style="endArrow=none;html=1;rounded=0;" edge="1" parent="1">
          <mxGeometry width="50" height="50" relative="1" as="geometry">
            <mxPoint x="190" y="470" as="sourcePoint" />
            <mxPoint x="640" y="470" as="targetPoint" />
            <Array as="points">
              <mxPoint x="440" y="470" />
            </Array>
          </mxGeometry>
        </mxCell>
        <mxCell id="4L2Bnw1b_lnp_-0IPFtR-10" value="Core WS interface (grensesnitt) prod" style="rounded=1;whiteSpace=wrap;html=1;" vertex="1" parent="1">
          <mxGeometry x="320" y="380" width="120" height="60" as="geometry" />
        </mxCell>
        <mxCell id="4L2Bnw1b_lnp_-0IPFtR-11" value="Customer management&lt;br&gt;prod" style="whiteSpace=wrap;html=1;aspect=fixed;" vertex="1" parent="1">
          <mxGeometry x="230" y="490" width="80" height="80" as="geometry" />
        </mxCell>
        <mxCell id="4L2Bnw1b_lnp_-0IPFtR-12" value="Agreement manageent&lt;br&gt;Prod" style="whiteSpace=wrap;html=1;aspect=fixed;" vertex="1" parent="1">
          <mxGeometry x="360" y="490" width="80" height="80" as="geometry" />
        </mxCell>
        <mxCell id="4L2Bnw1b_lnp_-0IPFtR-13" value="Payment System" style="whiteSpace=wrap;html=1;aspect=fixed;" vertex="1" parent="1">
          <mxGeometry x="500" y="490" width="80" height="80" as="geometry" />
        </mxCell>
        <mxCell id="4L2Bnw1b_lnp_-0IPFtR-14" value="EAM Pilot user" style="whiteSpace=wrap;html=1;aspect=fixed;" vertex="1" parent="1">
          <mxGeometry x="630" y="10" width="80" height="80" as="geometry" />
        </mxCell>
        <mxCell id="4L2Bnw1b_lnp_-0IPFtR-16" value="" style="endArrow=classic;html=1;rounded=0;exitX=1.003;exitY=0.144;exitDx=0;exitDy=0;exitPerimeter=0;" edge="1" parent="1" source="4L2Bnw1b_lnp_-0IPFtR-2">
          <mxGeometry width="50" height="50" relative="1" as="geometry">
            <mxPoint x="580" y="120" as="sourcePoint" />
            <mxPoint x="630" y="70" as="targetPoint" />
          </mxGeometry>
        </mxCell>
        <mxCell id="4L2Bnw1b_lnp_-0IPFtR-17" value="" style="endArrow=classic;html=1;rounded=0;entryX=-0.009;entryY=0.631;entryDx=0;entryDy=0;entryPerimeter=0;" edge="1" parent="1" target="4L2Bnw1b_lnp_-0IPFtR-2">
          <mxGeometry width="50" height="50" relative="1" as="geometry">
            <mxPoint x="160" y="240" as="sourcePoint" />
            <mxPoint x="190" y="125" as="targetPoint" />
          </mxGeometry>
        </mxCell>
        <mxCell id="4L2Bnw1b_lnp_-0IPFtR-18" value="SCS login" style="text;html=1;align=center;verticalAlign=middle;resizable=0;points=[];autosize=1;strokeColor=none;fillColor=none;" vertex="1" parent="1">
          <mxGeometry x="120" y="135" width="80" height="30" as="geometry" />
        </mxCell>
        <mxCell id="4L2Bnw1b_lnp_-0IPFtR-19" value="SCS login" style="text;html=1;align=center;verticalAlign=middle;resizable=0;points=[];autosize=1;strokeColor=none;fillColor=none;" vertex="1" parent="1">
          <mxGeometry x="110" y="245" width="80" height="30" as="geometry" />
        </mxCell>
        <mxCell id="4L2Bnw1b_lnp_-0IPFtR-21" value="Activity client&lt;br&gt;&lt;br&gt;Payment client" style="text;html=1;strokeColor=none;fillColor=none;align=center;verticalAlign=middle;whiteSpace=wrap;rounded=0;" vertex="1" parent="1">
          <mxGeometry x="40" y="190" width="60" height="30" as="geometry" />
        </mxCell>
        <mxCell id="4L2Bnw1b_lnp_-0IPFtR-22" value="" style="endArrow=classic;html=1;rounded=0;entryX=0.627;entryY=0.025;entryDx=0;entryDy=0;entryPerimeter=0;exitX=0.5;exitY=1;exitDx=0;exitDy=0;" edge="1" parent="1" source="4L2Bnw1b_lnp_-0IPFtR-3" target="4L2Bnw1b_lnp_-0IPFtR-5">
          <mxGeometry width="50" height="50" relative="1" as="geometry">
            <mxPoint x="270" y="190" as="sourcePoint" />
            <mxPoint x="337" y="207" as="targetPoint" />
            <Array as="points">
              <mxPoint x="269" y="210" />
            </Array>
          </mxGeometry>
        </mxCell>
        <mxCell id="4L2Bnw1b_lnp_-0IPFtR-23" value="" style="endArrow=classic;html=1;rounded=0;entryX=0.145;entryY=0;entryDx=0;entryDy=4.35;entryPerimeter=0;" edge="1" parent="1">
          <mxGeometry width="50" height="50" relative="1" as="geometry">
            <mxPoint x="450.5" y="188" as="sourcePoint" />
            <mxPoint x="449.5" y="222" as="targetPoint" />
          </mxGeometry>
        </mxCell>
        <mxCell id="4L2Bnw1b_lnp_-0IPFtR-24" value="" style="endArrow=classic;html=1;rounded=0;entryX=0.145;entryY=0;entryDx=0;entryDy=4.35;entryPerimeter=0;" edge="1" parent="1">
          <mxGeometry width="50" height="50" relative="1" as="geometry">
            <mxPoint x="380.5" y="356" as="sourcePoint" />
            <mxPoint x="379.5" y="390" as="targetPoint" />
          </mxGeometry>
        </mxCell>
        <mxCell id="4L2Bnw1b_lnp_-0IPFtR-26" value="" style="endArrow=classic;html=1;rounded=0;entryX=0.145;entryY=0;entryDx=0;entryDy=4.35;entryPerimeter=0;" edge="1" parent="1">
          <mxGeometry width="50" height="50" relative="1" as="geometry">
            <mxPoint x="270.5" y="456" as="sourcePoint" />
            <mxPoint x="269.5" y="490" as="targetPoint" />
          </mxGeometry>
        </mxCell>
        <mxCell id="4L2Bnw1b_lnp_-0IPFtR-27" value="" style="endArrow=classic;html=1;rounded=0;entryX=0.145;entryY=0;entryDx=0;entryDy=4.35;entryPerimeter=0;" edge="1" parent="1">
          <mxGeometry width="50" height="50" relative="1" as="geometry">
            <mxPoint x="400.5" y="456" as="sourcePoint" />
            <mxPoint x="399.5" y="490" as="targetPoint" />
          </mxGeometry>
        </mxCell>
        <mxCell id="4L2Bnw1b_lnp_-0IPFtR-28" value="" style="endArrow=classic;html=1;rounded=0;entryX=0.145;entryY=0;entryDx=0;entryDy=4.35;entryPerimeter=0;" edge="1" parent="1">
          <mxGeometry width="50" height="50" relative="1" as="geometry">
            <mxPoint x="551" y="456" as="sourcePoint" />
            <mxPoint x="550" y="490" as="targetPoint" />
          </mxGeometry>
        </mxCell>
        <mxCell id="4L2Bnw1b_lnp_-0IPFtR-29" value="" style="endArrow=classic;html=1;rounded=0;" edge="1" parent="1">
          <mxGeometry width="50" height="50" relative="1" as="geometry">
            <mxPoint x="111.5" y="423" as="sourcePoint" />
            <mxPoint x="320" y="423" as="targetPoint" />
          </mxGeometry>
        </mxCell>
        <mxCell id="4L2Bnw1b_lnp_-0IPFtR-30" value="HBN Internet Banking" style="whiteSpace=wrap;html=1;aspect=fixed;" vertex="1" parent="1">
          <mxGeometry x="30" y="300" width="80" height="80" as="geometry" />
        </mxCell>
        <mxCell id="4L2Bnw1b_lnp_-0IPFtR-31" value="" style="endArrow=classic;html=1;rounded=0;entryX=0.036;entryY=0.821;entryDx=0;entryDy=0;entryPerimeter=0;" edge="1" parent="1" target="4L2Bnw1b_lnp_-0IPFtR-2">
          <mxGeometry width="50" height="50" relative="1" as="geometry">
            <mxPoint x="110" y="320" as="sourcePoint" />
            <mxPoint x="318.5" y="322" as="targetPoint" />
          </mxGeometry>
        </mxCell>
        <mxCell id="4L2Bnw1b_lnp_-0IPFtR-33" value="Via SCS WS calls" style="text;html=1;align=center;verticalAlign=middle;resizable=0;points=[];autosize=1;strokeColor=none;fillColor=none;" vertex="1" parent="1">
          <mxGeometry x="100" y="295" width="120" height="30" as="geometry" />
        </mxCell>
        <mxCell id="4L2Bnw1b_lnp_-0IPFtR-34" value="Direct coreWS interface" style="text;html=1;align=center;verticalAlign=middle;resizable=0;points=[];autosize=1;strokeColor=none;fillColor=none;" vertex="1" parent="1">
          <mxGeometry x="100" y="390" width="150" height="30" as="geometry" />
        </mxCell>
        <mxCell id="4L2Bnw1b_lnp_-0IPFtR-36" value="E-signing call back" style="whiteSpace=wrap;html=1;aspect=fixed;" vertex="1" parent="1">
          <mxGeometry x="30" y="480" width="80" height="80" as="geometry" />
        </mxCell>
        <mxCell id="4L2Bnw1b_lnp_-0IPFtR-37" value="" style="endArrow=classic;html=1;rounded=0;entryX=1;entryY=0;entryDx=0;entryDy=0;exitX=0;exitY=0.25;exitDx=0;exitDy=0;" edge="1" parent="1" source="4L2Bnw1b_lnp_-0IPFtR-14" target="4L2Bnw1b_lnp_-0IPFtR-2">
          <mxGeometry width="50" height="50" relative="1" as="geometry">
            <mxPoint x="510" y="-20" as="sourcePoint" />
            <mxPoint x="629" y="30" as="targetPoint" />
          </mxGeometry>
        </mxCell>
        <mxCell id="4L2Bnw1b_lnp_-0IPFtR-38" value="" style="endArrow=classic;html=1;rounded=0;exitX=0;exitY=0.25;exitDx=0;exitDy=0;" edge="1" parent="1" target="4L2Bnw1b_lnp_-0IPFtR-2">
          <mxGeometry width="50" height="50" relative="1" as="geometry">
            <mxPoint x="440" y="90" as="sourcePoint" />
            <mxPoint x="330" y="150" as="targetPoint" />
          </mxGeometry>
        </mxCell>
        <mxCell id="4L2Bnw1b_lnp_-0IPFtR-39" value="" style="endArrow=classic;html=1;rounded=0;exitX=1.003;exitY=0.144;exitDx=0;exitDy=0;exitPerimeter=0;entryX=0.025;entryY=0.66;entryDx=0;entryDy=0;entryPerimeter=0;" edge="1" parent="1" target="4L2Bnw1b_lnp_-0IPFtR-4">
          <mxGeometry width="50" height="50" relative="1" as="geometry">
            <mxPoint x="325.5" y="165" as="sourcePoint" />
            <mxPoint x="434.5" y="105" as="targetPoint" />
          </mxGeometry>
        </mxCell>
        <mxCell id="4L2Bnw1b_lnp_-0IPFtR-40" value="Redirect facade based on EAM role" style="text;html=1;strokeColor=none;fillColor=none;align=center;verticalAlign=middle;whiteSpace=wrap;rounded=0;" vertex="1" parent="1">
          <mxGeometry x="320" y="90" width="180" height="30" as="geometry" />
        </mxCell>
        <mxCell id="4L2Bnw1b_lnp_-0IPFtR-41" value="" style="endArrow=classic;html=1;rounded=0;entryX=0.25;entryY=1;entryDx=0;entryDy=0;" edge="1" parent="1" target="4L2Bnw1b_lnp_-0IPFtR-2">
          <mxGeometry width="50" height="50" relative="1" as="geometry">
            <mxPoint x="110" y="490" as="sourcePoint" />
            <mxPoint x="318.5" y="490" as="targetPoint" />
          </mxGeometry>
        </mxCell>
        <mxCell id="4L2Bnw1b_lnp_-0IPFtR-42" value="" style="endArrow=none;dashed=1;html=1;rounded=0;entryX=1;entryY=1.167;entryDx=0;entryDy=0;entryPerimeter=0;" edge="1" parent="1" target="4L2Bnw1b_lnp_-0IPFtR-19">
          <mxGeometry width="50" height="50" relative="1" as="geometry">
            <mxPoint x="190" y="560" as="sourcePoint" />
            <mxPoint x="200" y="330" as="targetPoint" />
          </mxGeometry>
        </mxCell>
      </root>
    </mxGraphModel>
  </diagram>
</mxfile>
